<svg id="svg" version="1.1" xmlns="http://www.w3.org/2000/svg" xmlns:xlink="http://www.w3.org/1999/xlink" width="20" height="20" viewBox="0, 0, 400,416.90140845070425"><g id="svgg"><path id="path0" d="M261.200 27.464 C 247.912 27.872,241.167 28.897,235.400 31.385 C 233.200 32.334,229.842 33.581,227.939 34.156 C 225.995 34.743,223.539 35.840,222.339 36.657 C 221.162 37.457,218.936 38.693,217.391 39.404 C 215.847 40.115,213.417 41.583,211.991 42.666 C 210.566 43.750,208.410 45.235,207.200 45.967 C 205.990 46.699,204.066 48.176,202.924 49.249 C 201.782 50.322,200.694 51.200,200.506 51.200 C 200.318 51.200,197.716 53.585,194.724 56.500 C 191.732 59.415,188.680 62.354,187.942 63.031 C 187.204 63.708,185.963 64.968,185.185 65.831 C 184.407 66.694,183.147 67.963,182.385 68.652 C 181.623 69.340,178.390 72.654,175.200 76.016 C 172.010 79.377,168.230 83.349,166.800 84.843 C 165.370 86.337,162.760 89.107,161.000 90.999 C 159.240 92.890,156.810 95.489,155.600 96.774 C 154.390 98.058,152.106 100.525,150.525 102.255 C 142.197 111.366,136.600 117.524,133.091 121.439 C 127.097 128.125,115.253 141.073,109.525 147.200 C 105.888 151.090,102.484 154.775,99.000 158.590 C 97.460 160.276,95.307 162.560,94.216 163.664 C 93.125 164.769,91.865 166.168,91.416 166.773 C 90.967 167.378,85.740 173.089,79.800 179.464 C 73.860 185.840,67.200 193.083,65.000 195.562 C 62.800 198.040,59.965 201.150,58.700 202.473 C 57.435 203.797,56.400 205.055,56.400 205.269 C 56.400 205.484,55.434 206.681,54.254 207.930 C 53.074 209.178,51.608 211.010,50.997 212.000 C 50.387 212.990,49.233 214.520,48.435 215.400 C 47.636 216.280,46.192 218.530,45.226 220.400 C 44.259 222.270,42.879 224.577,42.158 225.526 C 41.438 226.475,40.363 228.725,39.769 230.526 C 39.175 232.327,37.904 235.420,36.944 237.400 C 35.541 240.297,34.928 242.327,33.804 247.800 C 33.036 251.540,31.928 256.310,31.342 258.400 C 29.233 265.927,29.504 285.726,31.839 294.712 C 32.390 296.834,33.367 301.096,34.009 304.185 C 34.914 308.541,35.576 310.607,36.960 313.400 C 37.942 315.380,39.241 318.516,39.848 320.368 C 40.455 322.221,41.544 324.513,42.268 325.461 C 42.992 326.410,44.288 328.585,45.147 330.296 C 46.007 332.006,47.457 334.304,48.370 335.403 C 49.282 336.501,50.498 338.210,51.071 339.200 C 52.334 341.381,55.103 344.500,61.200 350.609 C 68.590 358.013,69.701 359.039,71.600 360.213 C 72.590 360.825,74.281 362.094,75.359 363.033 C 76.436 363.972,78.506 365.332,79.959 366.056 C 81.411 366.779,83.724 368.127,85.097 369.052 C 86.471 369.976,89.081 371.223,90.897 371.823 C 92.714 372.422,95.408 373.516,96.883 374.253 C 110.958 381.283,152.774 381.424,166.646 374.489 C 167.941 373.842,170.763 372.730,172.917 372.017 C 175.072 371.305,177.747 370.109,178.862 369.358 C 179.977 368.608,182.282 367.270,183.983 366.384 C 185.685 365.499,187.996 363.990,189.119 363.032 C 190.241 362.074,191.844 360.879,192.680 360.377 C 193.516 359.875,195.383 358.370,196.829 357.032 C 198.275 355.694,200.075 354.053,200.829 353.384 C 201.583 352.715,202.740 351.577,203.400 350.855 C 204.060 350.133,205.410 348.790,206.400 347.871 C 207.390 346.952,208.582 345.750,209.048 345.200 C 209.515 344.650,210.685 343.464,211.648 342.565 C 212.612 341.666,216.010 338.172,219.200 334.800 C 222.390 331.429,226.080 327.543,227.400 326.165 C 228.720 324.788,231.180 322.162,232.866 320.330 C 234.552 318.499,238.512 314.203,241.666 310.785 C 247.406 304.563,252.187 299.340,257.359 293.640 C 265.346 284.838,270.080 279.676,272.620 277.000 C 273.872 275.680,275.365 273.970,275.938 273.200 C 276.510 272.430,277.973 270.786,279.189 269.546 C 280.405 268.306,282.607 265.966,284.082 264.346 C 285.557 262.726,288.816 259.150,291.325 256.400 C 293.834 253.650,296.496 250.680,297.240 249.800 C 297.985 248.920,302.335 244.213,306.908 239.341 C 311.481 234.469,315.712 229.872,316.311 229.127 C 316.910 228.382,318.300 226.855,319.400 225.734 C 320.500 224.613,322.750 222.220,324.400 220.418 C 326.050 218.615,328.480 215.998,329.800 214.601 C 331.120 213.205,333.550 210.506,335.200 208.605 C 336.850 206.703,339.325 204.011,340.700 202.622 C 342.075 201.234,343.200 199.906,343.200 199.672 C 343.200 199.437,344.165 198.200,345.345 196.923 C 346.525 195.645,348.174 193.520,349.010 192.200 C 349.846 190.880,351.308 188.802,352.260 187.582 C 353.211 186.362,354.458 184.211,355.030 182.802 C 355.603 181.393,356.571 179.511,357.181 178.620 C 358.876 176.145,359.825 174.088,360.791 170.800 C 361.275 169.150,362.362 166.254,363.206 164.365 C 368.634 152.217,368.635 110.592,363.207 98.435 C 362.364 96.546,361.277 93.560,360.791 91.800 C 359.844 88.369,358.831 86.118,357.371 84.200 C 356.869 83.540,355.839 81.532,355.082 79.738 C 354.325 77.944,352.863 75.442,351.833 74.177 C 350.802 72.912,349.709 71.278,349.404 70.547 C 349.098 69.815,348.065 68.358,347.109 67.308 C 346.152 66.259,344.845 64.680,344.203 63.800 C 340.514 58.739,329.192 47.984,324.459 45.045 C 323.437 44.410,321.899 43.262,321.042 42.494 C 320.185 41.726,318.325 40.572,316.908 39.929 C 315.491 39.287,313.132 37.963,311.664 36.987 C 310.123 35.962,307.308 34.638,304.998 33.851 C 302.799 33.102,299.650 31.845,298.000 31.057 C 292.641 28.497,277.061 26.976,261.200 27.464 M279.827 41.749 C 286.429 43.111,297.625 46.763,300.600 48.526 C 301.700 49.177,303.860 50.338,305.400 51.104 C 306.940 51.871,309.100 53.165,310.200 53.979 C 311.300 54.794,313.232 56.118,314.494 56.921 C 315.755 57.725,317.825 59.334,319.094 60.497 C 320.362 61.660,321.940 63.002,322.600 63.479 C 325.555 65.613,335.224 77.329,337.451 81.474 C 338.257 82.973,339.513 85.100,340.241 86.200 C 340.970 87.300,342.123 89.640,342.803 91.400 C 343.483 93.160,344.643 95.950,345.381 97.600 C 346.916 101.031,347.767 103.650,348.369 106.800 C 351.832 124.924,352.056 134.566,349.364 149.600 C 347.899 157.784,347.244 160.204,345.196 165.000 C 344.163 167.420,343.005 170.257,342.624 171.304 C 342.243 172.351,341.136 174.368,340.166 175.786 C 339.195 177.204,337.848 179.301,337.173 180.446 C 335.589 183.132,330.003 189.524,323.400 196.205 C 321.860 197.763,320.050 199.659,319.378 200.419 C 318.705 201.179,317.535 202.367,316.778 203.060 C 316.020 203.754,313.960 205.887,312.200 207.802 C 310.440 209.717,307.920 212.421,306.600 213.812 C 303.397 217.187,299.640 221.237,289.730 232.000 C 276.300 246.586,270.059 253.042,268.668 253.791 C 266.892 254.748,264.000 253.349,260.557 249.869 C 256.367 245.634,253.078 242.808,251.000 241.659 C 247.113 239.510,243.644 236.484,232.781 225.770 C 226.741 219.813,219.195 212.433,216.012 209.370 C 212.828 206.306,205.718 199.389,200.212 193.998 C 194.705 188.607,187.590 181.774,184.400 178.813 C 176.906 171.858,170.298 165.428,155.129 150.328 L 142.800 138.056 142.818 136.128 C 142.844 133.306,143.334 132.519,148.400 127.151 C 150.930 124.470,154.422 120.729,156.161 118.838 C 157.900 116.947,160.240 114.474,161.361 113.341 C 163.294 111.390,165.329 109.177,171.974 101.800 C 177.148 96.057,180.958 91.957,183.258 89.658 C 184.500 88.416,189.293 83.350,193.908 78.400 C 205.682 65.772,212.920 58.986,217.221 56.543 C 218.199 55.988,219.719 54.946,220.599 54.227 C 223.002 52.266,234.233 46.949,238.481 45.761 C 240.526 45.189,244.270 44.116,246.800 43.376 C 251.001 42.148,254.297 41.498,258.600 41.048 C 262.082 40.684,277.061 41.179,279.827 41.749 M95.357 236.838 C 99.328 239.961,99.374 249.499,95.436 253.436 C 91.861 257.012,83.901 257.313,79.959 254.022 C 73.625 248.735,88.863 231.729,95.357 236.838 M83.984 261.448 C 86.526 263.587,86.575 263.847,86.860 276.800 C 87.055 285.672,87.281 289.245,87.771 291.200 C 89.140 296.656,88.949 297.802,86.047 301.515 C 81.828 306.915,73.366 302.169,71.933 293.600 C 71.227 289.382,71.211 267.133,71.912 265.159 C 73.299 261.249,80.952 258.897,83.984 261.448 M94.580 307.643 C 99.103 308.899,103.923 315.945,103.441 320.596 C 102.890 325.906,101.171 327.585,96.274 327.594 C 92.512 327.601,92.711 327.706,88.111 323.297 C 78.712 314.291,82.809 304.375,94.580 307.643 " stroke="none" fill="#000000" fill-rule="evenodd"></path><path id="path1" d="M0.000 208.400 L 0.000 416.800 200.000 416.800 L 400.000 416.800 400.000 208.400 L 400.000 0.000 200.000 0.000 L 0.000 0.000 0.000 208.400 M277.002 23.802 C 279.861 24.133,284.000 24.761,286.200 25.199 C 288.400 25.636,292.350 26.359,294.979 26.804 C 299.630 27.592,301.761 28.366,305.397 30.590 C 306.275 31.127,308.474 32.028,310.282 32.591 C 312.678 33.338,314.088 34.064,315.476 35.266 C 316.524 36.173,318.536 37.433,319.948 38.066 C 321.360 38.700,323.119 39.749,323.858 40.397 C 324.596 41.045,326.505 42.463,328.100 43.546 C 329.695 44.630,331.630 46.186,332.400 47.003 C 333.170 47.820,334.747 49.196,335.905 50.061 C 337.063 50.926,338.472 52.331,339.037 53.184 C 339.601 54.037,340.743 55.206,341.574 55.782 C 342.406 56.358,343.685 57.678,344.418 58.715 C 345.151 59.752,346.713 61.651,347.888 62.936 C 349.064 64.222,350.571 66.354,351.238 67.675 C 351.905 68.996,353.082 70.709,353.855 71.482 C 354.627 72.254,355.865 74.215,356.606 75.840 C 357.346 77.465,358.679 79.810,359.568 81.052 C 360.592 82.481,361.568 84.565,362.230 86.734 C 362.804 88.618,364.159 91.879,365.240 93.980 C 367.043 97.485,367.274 98.262,368.036 103.400 C 368.492 106.480,369.295 111.072,369.818 113.604 C 371.882 123.579,371.931 132.989,369.987 146.200 C 367.040 166.227,367.162 165.675,364.820 169.598 C 363.966 171.029,362.876 173.640,362.397 175.400 C 361.489 178.740,361.023 179.677,359.110 182.000 C 358.476 182.770,357.341 184.829,356.587 186.576 C 355.781 188.446,354.570 190.420,353.643 191.376 C 352.778 192.269,351.493 193.990,350.788 195.200 C 350.082 196.410,348.821 197.987,347.985 198.704 C 347.148 199.421,345.926 200.882,345.268 201.951 C 344.611 203.019,343.517 204.290,342.837 204.773 C 342.158 205.257,341.026 206.496,340.322 207.527 C 339.618 208.557,338.086 210.390,336.918 211.600 C 335.750 212.810,331.877 217.040,328.311 221.000 C 321.253 228.838,311.604 239.259,308.045 242.889 C 306.810 244.148,304.450 246.647,302.800 248.443 C 301.150 250.239,298.791 252.719,297.558 253.954 C 296.325 255.189,294.830 256.977,294.236 257.926 C 293.643 258.876,292.522 260.027,291.747 260.484 C 290.971 260.942,289.876 262.055,289.314 262.958 C 288.350 264.504,287.490 265.448,281.013 272.072 C 279.576 273.541,278.400 274.945,278.400 275.191 C 278.400 275.437,277.185 276.869,275.700 278.373 C 274.215 279.876,271.380 282.957,269.400 285.219 C 263.593 291.854,256.183 300.023,251.600 304.842 C 250.170 306.346,247.788 308.887,246.306 310.489 C 238.869 318.526,237.621 319.856,235.381 322.137 C 234.050 323.492,232.472 325.266,231.875 326.081 C 231.278 326.895,230.241 327.885,229.572 328.280 C 228.903 328.675,227.802 329.861,227.125 330.916 C 226.449 331.971,225.129 333.361,224.192 334.005 C 223.256 334.650,222.021 335.976,221.448 336.954 C 220.876 337.931,219.766 339.127,218.982 339.611 C 218.199 340.095,216.857 341.440,216.000 342.600 C 215.143 343.760,213.791 345.111,212.996 345.603 C 212.200 346.094,211.106 347.199,210.565 348.056 C 210.023 348.914,208.709 350.242,207.644 351.007 C 206.579 351.772,205.228 353.123,204.640 354.011 C 204.053 354.898,202.724 356.152,201.686 356.797 C 200.649 357.442,199.363 358.619,198.829 359.412 C 198.295 360.206,197.133 361.226,196.247 361.678 C 195.361 362.130,193.638 363.446,192.418 364.602 C 191.198 365.759,189.041 367.286,187.625 367.996 C 186.209 368.706,184.127 369.984,182.998 370.836 C 181.786 371.752,179.649 372.807,177.773 373.415 C 176.028 373.981,173.430 375.145,172.000 376.000 C 168.529 378.077,168.010 378.247,162.098 379.233 C 159.296 379.700,155.072 380.688,152.712 381.428 C 145.753 383.610,144.074 383.800,131.800 383.800 C 119.522 383.800,117.855 383.610,111.181 381.454 C 108.882 380.710,104.683 379.713,101.851 379.236 C 96.188 378.283,94.883 377.846,92.201 376.001 C 91.207 375.317,88.803 374.166,86.859 373.443 C 84.914 372.720,82.171 371.307,80.762 370.304 C 79.353 369.300,77.162 367.989,75.894 367.390 C 74.506 366.734,73.095 365.677,72.347 364.733 C 71.664 363.871,70.247 362.731,69.198 362.199 C 68.148 361.667,66.658 360.494,65.887 359.593 C 65.115 358.691,63.683 357.446,62.704 356.825 C 61.726 356.205,60.528 355.054,60.042 354.268 C 59.556 353.482,58.426 352.300,57.530 351.641 C 56.635 350.983,55.292 349.538,54.546 348.430 C 53.800 347.323,52.635 346.008,51.957 345.508 C 51.280 345.009,50.096 343.520,49.328 342.200 C 48.559 340.880,47.398 339.376,46.748 338.858 C 46.098 338.340,44.835 336.450,43.940 334.658 C 43.046 332.866,41.589 330.452,40.702 329.293 C 39.773 328.077,38.604 325.793,37.940 323.893 C 37.306 322.082,36.185 319.610,35.447 318.400 C 33.362 314.980,33.296 314.801,32.387 310.167 C 31.899 307.676,30.861 304.218,29.971 302.116 C 27.445 296.151,26.814 290.822,26.809 275.400 C 26.805 260.611,27.551 254.465,30.009 249.044 C 30.683 247.558,31.678 244.150,32.220 241.471 C 33.379 235.747,33.827 234.514,35.925 231.267 C 36.789 229.931,37.709 227.992,37.969 226.958 C 38.582 224.523,39.332 223.096,41.416 220.400 C 42.351 219.190,43.596 217.169,44.182 215.910 C 44.769 214.650,45.776 213.244,46.421 212.785 C 47.066 212.326,48.299 210.746,49.160 209.275 C 50.021 207.804,51.210 206.150,51.804 205.600 C 52.397 205.050,53.703 203.520,54.706 202.200 C 56.642 199.653,60.249 195.530,64.200 191.349 C 65.520 189.952,67.950 187.362,69.600 185.595 C 71.250 183.827,73.787 181.170,75.237 179.690 C 76.688 178.211,78.166 176.521,78.522 175.937 C 78.879 175.352,79.884 174.362,80.756 173.737 C 81.628 173.111,82.657 172.060,83.042 171.400 C 83.428 170.740,84.973 168.940,86.476 167.400 C 87.978 165.860,90.283 163.430,91.597 162.000 C 92.911 160.570,95.249 158.106,96.793 156.525 C 98.337 154.943,99.600 153.457,99.600 153.222 C 99.600 152.987,100.815 151.547,102.300 150.024 C 105.293 146.953,108.049 143.983,116.431 134.800 C 119.543 131.390,123.644 126.916,125.545 124.858 C 127.445 122.800,129.314 120.640,129.698 120.058 C 130.082 119.476,131.009 118.550,131.758 118.000 C 132.507 117.450,133.543 116.370,134.060 115.600 C 134.577 114.830,136.080 113.085,137.400 111.723 C 138.720 110.360,141.060 107.887,142.600 106.226 C 144.140 104.565,146.704 101.810,148.298 100.103 C 149.891 98.396,152.274 95.830,153.592 94.400 C 157.442 90.224,161.604 85.755,164.400 82.795 C 165.830 81.281,168.350 78.593,170.000 76.822 C 172.505 74.133,185.044 61.522,194.600 52.080 C 195.920 50.776,197.758 49.237,198.685 48.659 C 199.611 48.082,200.761 47.079,201.241 46.431 C 201.720 45.782,203.122 44.712,204.356 44.053 C 205.590 43.393,207.230 42.195,208.000 41.390 C 208.770 40.584,211.110 39.061,213.200 38.005 C 215.290 36.948,217.685 35.536,218.523 34.867 C 219.401 34.166,221.689 33.111,223.923 32.378 C 226.055 31.679,228.612 30.596,229.605 29.972 C 232.383 28.228,234.021 27.662,238.276 26.980 C 240.434 26.634,244.302 25.908,246.872 25.366 C 256.991 23.235,267.424 22.693,277.002 23.802 M262.600 44.860 C 252.362 45.464,241.963 47.403,237.858 49.474 C 236.286 50.266,233.484 51.428,231.630 52.056 C 229.622 52.736,226.956 54.067,225.030 55.352 C 223.254 56.538,220.764 58.087,219.498 58.793 C 218.233 59.500,216.793 60.586,216.298 61.207 C 215.804 61.827,214.443 62.961,213.274 63.725 C 212.105 64.489,210.716 65.701,210.186 66.419 C 209.657 67.137,208.375 68.327,207.338 69.064 C 206.301 69.801,205.134 70.891,204.744 71.486 C 204.353 72.081,202.901 73.684,201.517 75.049 C 200.133 76.414,197.740 78.908,196.200 80.592 C 192.573 84.559,188.505 88.891,185.000 92.521 C 181.653 95.986,178.074 99.839,174.000 104.363 C 172.350 106.195,168.300 110.580,165.000 114.107 C 145.566 134.882,146.023 134.276,147.261 137.574 C 147.797 139.002,171.955 162.901,186.912 176.800 C 189.697 179.388,195.801 185.207,197.040 186.455 C 197.398 186.815,198.615 188.021,199.745 189.135 C 200.875 190.248,202.340 191.733,203.000 192.434 C 203.660 193.135,204.813 194.269,205.562 194.954 C 206.311 195.639,208.111 197.391,209.562 198.846 C 211.013 200.302,212.772 201.880,213.472 202.354 C 214.171 202.827,215.121 203.826,215.583 204.573 C 216.045 205.320,217.273 206.481,218.311 207.154 C 219.350 207.826,220.644 209.035,221.187 209.840 C 221.730 210.645,223.104 211.990,224.241 212.830 C 225.378 213.670,226.705 215.000,227.190 215.784 C 227.675 216.569,228.872 217.761,229.849 218.434 C 230.826 219.106,232.094 220.364,232.666 221.228 C 233.239 222.093,234.302 223.169,235.029 223.618 C 235.756 224.067,237.281 225.508,238.417 226.819 C 239.552 228.130,241.017 229.517,241.672 229.902 C 242.327 230.286,243.453 231.420,244.175 232.423 C 245.635 234.450,249.861 236.800,252.048 236.800 C 253.267 236.800,261.508 228.986,265.545 224.003 C 266.345 223.015,267.990 221.194,269.200 219.956 C 270.410 218.718,272.660 216.327,274.200 214.642 C 275.740 212.957,278.170 210.354,279.600 208.856 C 281.030 207.359,282.666 205.609,283.236 204.967 C 283.806 204.325,284.976 203.137,285.836 202.327 C 286.696 201.517,288.840 199.295,290.600 197.389 C 292.360 195.484,294.420 193.356,295.178 192.662 C 295.935 191.968,297.105 190.778,297.778 190.018 C 298.450 189.258,300.170 187.435,301.600 185.967 C 309.587 177.771,313.846 172.666,315.617 169.163 C 316.239 167.933,317.585 165.953,318.608 164.763 C 319.631 163.574,321.059 161.413,321.782 159.962 C 322.504 158.511,323.755 156.351,324.560 155.162 C 325.417 153.897,326.543 151.340,327.273 149.000 C 327.959 146.800,329.097 143.650,329.802 142.000 C 334.340 131.378,334.792 101.600,330.582 90.697 C 329.812 88.703,328.726 85.274,328.169 83.077 C 327.612 80.880,326.802 78.434,326.370 77.641 C 322.914 71.308,319.238 66.122,316.842 64.200 C 316.020 63.540,314.748 62.317,314.017 61.483 C 313.285 60.648,311.497 59.196,310.043 58.255 C 308.589 57.315,306.273 55.716,304.896 54.702 C 303.520 53.689,301.720 52.646,300.897 52.384 C 300.073 52.123,297.627 51.017,295.461 49.928 C 288.525 46.440,273.937 44.190,262.600 44.860 M79.999 287.400 C 79.512 288.667,79.732 292.004,80.454 294.300 C 80.945 295.864,82.376 296.153,82.439 294.700 C 82.657 289.628,81.022 284.736,79.999 287.400 M92.267 315.467 C 91.433 316.301,92.465 319.200,93.596 319.200 C 95.350 319.200,95.732 317.439,94.274 316.070 C 93.323 315.176,92.734 314.999,92.267 315.467 " stroke="none" fill="#fbfbfb" fill-rule="evenodd"></path><path id="path2" d="M256.072 23.834 C 253.581 24.136,249.441 24.825,246.872 25.366 C 244.302 25.908,240.434 26.634,238.276 26.980 C 234.021 27.662,232.383 28.228,229.605 29.972 C 228.612 30.596,226.055 31.679,223.923 32.378 C 221.689 33.111,219.401 34.166,218.523 34.867 C 217.685 35.536,215.290 36.948,213.200 38.005 C 211.110 39.061,208.770 40.584,208.000 41.390 C 207.230 42.195,205.590 43.393,204.356 44.053 C 203.122 44.712,201.720 45.782,201.241 46.431 C 200.761 47.079,199.611 48.082,198.685 48.659 C 197.758 49.237,195.920 50.776,194.600 52.080 C 185.044 61.522,172.505 74.133,170.000 76.822 C 168.350 78.593,165.830 81.281,164.400 82.795 C 161.604 85.755,157.442 90.224,153.592 94.400 C 152.274 95.830,149.891 98.396,148.298 100.103 C 146.704 101.810,144.140 104.565,142.600 106.226 C 141.060 107.887,138.720 110.360,137.400 111.723 C 136.080 113.085,134.577 114.830,134.060 115.600 C 133.543 116.370,132.507 117.450,131.758 118.000 C 131.009 118.550,130.082 119.476,129.698 120.058 C 129.314 120.640,127.445 122.800,125.545 124.858 C 123.644 126.916,119.543 131.390,116.431 134.800 C 108.049 143.983,105.293 146.953,102.300 150.024 C 100.815 151.547,99.600 152.987,99.600 153.222 C 99.600 153.457,98.337 154.943,96.793 156.525 C 95.249 158.106,92.911 160.570,91.597 162.000 C 90.283 163.430,87.978 165.860,86.476 167.400 C 84.973 168.940,83.428 170.740,83.042 171.400 C 82.657 172.060,81.628 173.111,80.756 173.737 C 79.884 174.362,78.879 175.352,78.522 175.937 C 78.166 176.521,76.688 178.211,75.237 179.690 C 73.787 181.170,71.250 183.827,69.600 185.595 C 67.950 187.362,65.520 189.952,64.200 191.349 C 60.249 195.530,56.642 199.653,54.706 202.200 C 53.703 203.520,52.397 205.050,51.804 205.600 C 51.210 206.150,50.021 207.804,49.160 209.275 C 48.299 210.746,47.066 212.326,46.421 212.785 C 45.776 213.244,44.769 214.650,44.182 215.910 C 43.596 217.169,42.351 219.190,41.416 220.400 C 39.332 223.096,38.582 224.523,37.969 226.958 C 37.709 227.992,36.789 229.931,35.925 231.267 C 33.827 234.514,33.379 235.747,32.220 241.471 C 31.678 244.150,30.683 247.558,30.009 249.044 C 27.551 254.465,26.805 260.611,26.809 275.400 C 26.814 290.822,27.445 296.151,29.971 302.116 C 30.861 304.218,31.899 307.676,32.387 310.167 C 33.296 314.801,33.362 314.980,35.447 318.400 C 36.185 319.610,37.306 322.082,37.940 323.893 C 38.604 325.793,39.773 328.077,40.702 329.293 C 41.589 330.452,43.046 332.866,43.940 334.658 C 44.835 336.450,46.098 338.340,46.748 338.858 C 47.398 339.376,48.559 340.880,49.328 342.200 C 50.096 343.520,51.280 345.009,51.957 345.508 C 52.635 346.008,53.800 347.323,54.546 348.430 C 55.292 349.538,56.635 350.983,57.530 351.641 C 58.426 352.300,59.556 353.482,60.042 354.268 C 60.528 355.054,61.726 356.205,62.704 356.825 C 63.683 357.446,65.115 358.691,65.887 359.593 C 66.658 360.494,68.148 361.667,69.198 362.199 C 70.247 362.731,71.664 363.871,72.347 364.733 C 73.095 365.677,74.506 366.734,75.894 367.390 C 77.162 367.989,79.353 369.300,80.762 370.304 C 82.171 371.307,84.914 372.720,86.859 373.443 C 88.803 374.166,91.207 375.317,92.201 376.001 C 94.883 377.846,96.188 378.283,101.851 379.236 C 104.683 379.713,108.882 380.710,111.181 381.454 C 117.855 383.610,119.522 383.800,131.800 383.800 C 144.074 383.800,145.753 383.610,152.712 381.428 C 155.072 380.688,159.296 379.700,162.098 379.233 C 168.010 378.247,168.529 378.077,172.000 376.000 C 173.430 375.145,176.028 373.981,177.773 373.415 C 179.649 372.807,181.786 371.752,182.998 370.836 C 184.127 369.984,186.209 368.706,187.625 367.996 C 189.041 367.286,191.198 365.759,192.418 364.602 C 193.638 363.446,195.361 362.130,196.247 361.678 C 197.133 361.226,198.295 360.206,198.829 359.412 C 199.363 358.619,200.649 357.442,201.686 356.797 C 202.724 356.152,204.053 354.898,204.640 354.011 C 205.228 353.123,206.579 351.772,207.644 351.007 C 208.709 350.242,210.023 348.914,210.565 348.056 C 211.106 347.199,212.200 346.094,212.996 345.603 C 213.791 345.111,215.143 343.760,216.000 342.600 C 216.857 341.440,218.199 340.095,218.982 339.611 C 219.766 339.127,220.876 337.931,221.448 336.954 C 222.021 335.976,223.256 334.650,224.192 334.005 C 225.129 333.361,226.449 331.971,227.125 330.916 C 227.802 329.861,228.903 328.675,229.572 328.280 C 230.241 327.885,231.278 326.895,231.875 326.081 C 232.472 325.266,234.050 323.492,235.381 322.137 C 237.621 319.856,238.869 318.526,246.306 310.489 C 247.788 308.887,250.170 306.346,251.600 304.842 C 256.183 300.023,263.593 291.854,269.400 285.219 C 271.380 282.957,274.215 279.876,275.700 278.373 C 277.185 276.869,278.400 275.437,278.400 275.191 C 278.400 274.945,279.576 273.541,281.013 272.072 C 287.490 265.448,288.350 264.504,289.314 262.958 C 289.876 262.055,290.971 260.942,291.747 260.484 C 292.522 260.027,293.643 258.876,294.236 257.926 C 294.830 256.977,296.325 255.189,297.558 253.954 C 298.791 252.719,301.150 250.239,302.800 248.443 C 304.450 246.647,306.810 244.148,308.045 242.889 C 311.604 239.259,321.253 228.838,328.311 221.000 C 331.877 217.040,335.750 212.810,336.918 211.600 C 338.086 210.390,339.618 208.557,340.322 207.527 C 341.026 206.496,342.158 205.257,342.837 204.773 C 343.517 204.290,344.611 203.019,345.268 201.951 C 345.926 200.882,347.148 199.421,347.985 198.704 C 348.821 197.987,350.082 196.410,350.788 195.200 C 351.493 193.990,352.778 192.269,353.643 191.376 C 354.570 190.420,355.781 188.446,356.587 186.576 C 357.341 184.829,358.476 182.770,359.110 182.000 C 361.023 179.677,361.489 178.740,362.397 175.400 C 362.876 173.640,363.966 171.029,364.820 169.598 C 367.162 165.675,367.040 166.227,369.987 146.200 C 371.931 132.989,371.882 123.579,369.818 113.604 C 369.295 111.072,368.492 106.480,368.036 103.400 C 367.274 98.262,367.043 97.485,365.240 93.980 C 364.159 91.879,362.804 88.618,362.230 86.734 C 361.568 84.565,360.592 82.481,359.568 81.052 C 358.679 79.810,357.346 77.465,356.606 75.840 C 355.865 74.215,354.627 72.254,353.855 71.482 C 353.082 70.709,351.905 68.996,351.238 67.675 C 350.571 66.354,349.064 64.222,347.888 62.936 C 346.713 61.651,345.151 59.752,344.418 58.715 C 343.685 57.678,342.406 56.358,341.574 55.782 C 340.743 55.206,339.601 54.037,339.037 53.184 C 338.472 52.331,337.063 50.926,335.905 50.061 C 334.747 49.196,333.170 47.820,332.400 47.003 C 331.630 46.186,329.695 44.630,328.100 43.546 C 326.505 42.463,324.596 41.045,323.858 40.397 C 323.119 39.749,321.360 38.700,319.948 38.066 C 318.536 37.433,316.524 36.173,315.476 35.266 C 314.088 34.064,312.678 33.338,310.282 32.591 C 308.474 32.028,306.275 31.127,305.397 30.590 C 301.761 28.366,299.630 27.592,294.979 26.804 C 292.350 26.359,288.400 25.636,286.200 25.199 C 276.309 23.232,265.203 22.728,256.072 23.834 M282.227 28.017 C 290.254 28.553,294.451 29.362,298.000 31.057 C 299.650 31.845,302.799 33.102,304.998 33.851 C 307.308 34.638,310.123 35.962,311.664 36.987 C 313.132 37.963,315.491 39.287,316.908 39.929 C 318.325 40.572,320.185 41.726,321.042 42.494 C 321.899 43.262,323.437 44.410,324.459 45.045 C 329.192 47.984,340.514 58.739,344.203 63.800 C 344.845 64.680,346.152 66.259,347.109 67.308 C 348.065 68.358,349.098 69.815,349.404 70.547 C 349.709 71.278,350.802 72.912,351.833 74.177 C 352.863 75.442,354.325 77.944,355.082 79.738 C 355.839 81.532,356.869 83.540,357.371 84.200 C 358.831 86.118,359.844 88.369,360.791 91.800 C 361.277 93.560,362.364 96.546,363.207 98.435 C 368.635 110.592,368.634 152.217,363.206 164.365 C 362.362 166.254,361.275 169.150,360.791 170.800 C 359.825 174.088,358.876 176.145,357.181 178.620 C 356.571 179.511,355.603 181.393,355.030 182.802 C 354.458 184.211,353.211 186.362,352.260 187.582 C 351.308 188.802,349.846 190.880,349.010 192.200 C 348.174 193.520,346.525 195.645,345.345 196.923 C 344.165 198.200,343.200 199.437,343.200 199.672 C 343.200 199.906,342.075 201.234,340.700 202.622 C 339.325 204.011,336.850 206.703,335.200 208.605 C 333.550 210.506,331.120 213.205,329.800 214.601 C 328.480 215.998,326.050 218.615,324.400 220.418 C 322.750 222.220,320.500 224.613,319.400 225.734 C 318.300 226.855,316.910 228.382,316.311 229.127 C 315.712 229.872,311.481 234.469,306.908 239.341 C 302.335 244.213,297.985 248.920,297.240 249.800 C 296.496 250.680,293.834 253.650,291.325 256.400 C 288.816 259.150,285.557 262.726,284.082 264.346 C 282.607 265.966,280.405 268.306,279.189 269.546 C 277.973 270.786,276.510 272.430,275.938 273.200 C 275.365 273.970,273.872 275.680,272.620 277.000 C 270.080 279.676,265.346 284.838,257.359 293.640 C 252.187 299.340,247.406 304.563,241.666 310.785 C 238.512 314.203,234.552 318.499,232.866 320.330 C 231.180 322.162,228.720 324.788,227.400 326.165 C 226.080 327.543,222.390 331.429,219.200 334.800 C 216.010 338.172,212.612 341.666,211.648 342.565 C 210.685 343.464,209.515 344.650,209.048 345.200 C 208.582 345.750,207.390 346.952,206.400 347.871 C 205.410 348.790,204.060 350.133,203.400 350.855 C 202.740 351.577,201.583 352.715,200.829 353.384 C 200.075 354.053,198.275 355.694,196.829 357.032 C 195.383 358.370,193.516 359.875,192.680 360.377 C 191.844 360.879,190.241 362.074,189.119 363.032 C 187.996 363.990,185.685 365.499,183.983 366.384 C 182.282 367.270,179.977 368.608,178.862 369.358 C 177.747 370.109,175.072 371.305,172.917 372.017 C 170.763 372.730,167.941 373.842,166.646 374.489 C 152.774 381.424,110.958 381.283,96.883 374.253 C 95.408 373.516,92.714 372.422,90.897 371.823 C 89.081 371.223,86.471 369.976,85.097 369.052 C 83.724 368.127,81.411 366.779,79.959 366.056 C 78.506 365.332,76.436 363.972,75.359 363.033 C 74.281 362.094,72.590 360.825,71.600 360.213 C 69.701 359.039,68.590 358.013,61.200 350.609 C 55.103 344.500,52.334 341.381,51.071 339.200 C 50.498 338.210,49.282 336.501,48.370 335.403 C 47.457 334.304,46.007 332.006,45.147 330.296 C 44.288 328.585,42.992 326.410,42.268 325.461 C 41.544 324.513,40.455 322.221,39.848 320.368 C 39.241 318.516,37.942 315.380,36.960 313.400 C 35.576 310.607,34.914 308.541,34.009 304.185 C 33.367 301.096,32.390 296.834,31.839 294.712 C 29.504 285.726,29.233 265.927,31.342 258.400 C 31.928 256.310,33.036 251.540,33.804 247.800 C 34.928 242.327,35.541 240.297,36.944 237.400 C 37.904 235.420,39.175 232.327,39.769 230.526 C 40.363 228.725,41.438 226.475,42.158 225.526 C 42.879 224.577,44.259 222.270,45.226 220.400 C 46.192 218.530,47.636 216.280,48.435 215.400 C 49.233 214.520,50.387 212.990,50.997 212.000 C 51.608 211.010,53.074 209.178,54.254 207.930 C 55.434 206.681,56.400 205.484,56.400 205.269 C 56.400 205.055,57.435 203.797,58.700 202.473 C 59.965 201.150,62.800 198.040,65.000 195.562 C 67.200 193.083,73.860 185.840,79.800 179.464 C 85.740 173.089,90.967 167.378,91.416 166.773 C 91.865 166.168,93.125 164.769,94.216 163.664 C 95.307 162.560,97.460 160.276,99.000 158.590 C 102.484 154.775,105.888 151.090,109.525 147.200 C 115.253 141.073,127.097 128.125,133.091 121.439 C 136.600 117.524,142.197 111.366,150.525 102.255 C 152.106 100.525,154.390 98.058,155.600 96.774 C 156.810 95.489,159.240 92.890,161.000 90.999 C 162.760 89.107,165.370 86.337,166.800 84.843 C 168.230 83.349,172.010 79.377,175.200 76.016 C 178.390 72.654,181.623 69.340,182.385 68.652 C 183.147 67.963,184.407 66.694,185.185 65.831 C 185.963 64.968,187.204 63.708,187.942 63.031 C 188.680 62.354,191.732 59.415,194.724 56.500 C 197.716 53.585,200.318 51.200,200.506 51.200 C 200.694 51.200,201.782 50.322,202.924 49.249 C 204.066 48.176,205.990 46.699,207.200 45.967 C 208.410 45.235,210.566 43.750,211.991 42.666 C 213.417 41.583,215.847 40.115,217.391 39.404 C 218.936 38.693,221.162 37.457,222.339 36.657 C 223.539 35.840,225.995 34.743,227.939 34.156 C 229.842 33.581,233.200 32.334,235.400 31.385 C 243.889 27.723,260.224 26.548,282.227 28.017 M258.600 41.048 C 254.297 41.498,251.001 42.148,246.800 43.376 C 244.270 44.116,240.526 45.189,238.481 45.761 C 234.233 46.949,223.002 52.266,220.599 54.227 C 219.719 54.946,218.199 55.988,217.221 56.543 C 212.920 58.986,205.682 65.772,193.908 78.400 C 189.293 83.350,184.500 88.416,183.258 89.658 C 180.958 91.957,177.148 96.057,171.974 101.800 C 165.329 109.177,163.294 111.390,161.361 113.341 C 160.240 114.474,157.900 116.947,156.161 118.838 C 154.422 120.729,150.930 124.470,148.400 127.151 C 143.334 132.519,142.844 133.306,142.818 136.128 L 142.800 138.056 155.129 150.328 C 170.298 165.428,176.906 171.858,184.400 178.813 C 187.590 181.774,194.705 188.607,200.212 193.998 C 205.718 199.389,212.828 206.306,216.012 209.370 C 219.195 212.433,226.741 219.813,232.781 225.770 C 243.644 236.484,247.113 239.510,251.000 241.659 C 253.078 242.808,256.367 245.634,260.557 249.869 C 264.000 253.349,266.892 254.748,268.668 253.791 C 270.059 253.042,276.300 246.586,289.730 232.000 C 299.640 221.237,303.397 217.187,306.600 213.812 C 307.920 212.421,310.440 209.717,312.200 207.802 C 313.960 205.887,316.020 203.754,316.778 203.060 C 317.535 202.367,318.705 201.179,319.378 200.419 C 320.050 199.659,321.860 197.763,323.400 196.205 C 330.003 189.524,335.589 183.132,337.173 180.446 C 337.848 179.301,339.195 177.204,340.166 175.786 C 341.136 174.368,342.243 172.351,342.624 171.304 C 343.005 170.257,344.163 167.420,345.196 165.000 C 347.244 160.204,347.899 157.784,349.364 149.600 C 352.056 134.566,351.832 124.924,348.369 106.800 C 347.767 103.650,346.916 101.031,345.381 97.600 C 344.643 95.950,343.483 93.160,342.803 91.400 C 342.123 89.640,340.970 87.300,340.241 86.200 C 339.513 85.100,338.257 82.973,337.451 81.474 C 335.224 77.329,325.555 65.613,322.600 63.479 C 321.940 63.002,320.362 61.660,319.094 60.497 C 317.825 59.334,315.755 57.725,314.494 56.921 C 313.232 56.118,311.300 54.794,310.200 53.979 C 309.100 53.165,306.940 51.871,305.400 51.104 C 303.860 50.338,301.700 49.177,300.600 48.526 C 297.625 46.763,286.429 43.111,279.827 41.749 C 277.061 41.179,262.082 40.684,258.600 41.048 M279.800 45.780 C 287.855 46.898,291.193 47.782,295.461 49.928 C 297.627 51.017,300.073 52.123,300.897 52.384 C 301.720 52.646,303.520 53.689,304.896 54.702 C 306.273 55.716,308.589 57.315,310.043 58.255 C 311.497 59.196,313.285 60.648,314.017 61.483 C 314.748 62.317,316.020 63.540,316.842 64.200 C 319.238 66.122,322.914 71.308,326.370 77.641 C 326.802 78.434,327.612 80.880,328.169 83.077 C 328.726 85.274,329.812 88.703,330.582 90.697 C 334.792 101.600,334.340 131.378,329.802 142.000 C 329.097 143.650,327.959 146.800,327.273 149.000 C 326.543 151.340,325.417 153.897,324.560 155.162 C 323.755 156.351,322.504 158.511,321.782 159.962 C 321.059 161.413,319.631 163.574,318.608 164.763 C 317.585 165.953,316.239 167.933,315.617 169.163 C 313.846 172.666,309.587 177.771,301.600 185.967 C 300.170 187.435,298.450 189.258,297.778 190.018 C 297.105 190.778,295.935 191.968,295.178 192.662 C 294.420 193.356,292.360 195.484,290.600 197.389 C 288.840 199.295,286.696 201.517,285.836 202.327 C 284.976 203.137,283.806 204.325,283.236 204.967 C 282.666 205.609,281.030 207.359,279.600 208.856 C 278.170 210.354,275.740 212.957,274.200 214.642 C 272.660 216.327,270.410 218.718,269.200 219.956 C 267.990 221.194,266.345 223.015,265.545 224.003 C 261.508 228.986,253.267 236.800,252.048 236.800 C 249.861 236.800,245.635 234.450,244.175 232.423 C 243.453 231.420,242.327 230.286,241.672 229.902 C 241.017 229.517,239.552 228.130,238.417 226.819 C 237.281 225.508,235.756 224.067,235.029 223.618 C 234.302 223.169,233.239 222.093,232.666 221.228 C 232.094 220.364,230.826 219.106,229.849 218.434 C 228.872 217.761,227.675 216.569,227.190 215.784 C 226.705 215.000,225.378 213.670,224.241 212.830 C 223.104 211.990,221.730 210.645,221.187 209.840 C 220.644 209.035,219.350 207.826,218.311 207.154 C 217.273 206.481,216.045 205.320,215.583 204.573 C 215.121 203.826,214.171 202.827,213.472 202.354 C 212.772 201.880,211.013 200.302,209.562 198.846 C 208.111 197.391,206.311 195.639,205.562 194.954 C 204.813 194.269,203.660 193.135,203.000 192.434 C 202.340 191.733,200.875 190.248,199.745 189.135 C 198.615 188.021,197.398 186.815,197.040 186.455 C 195.801 185.207,189.697 179.388,186.912 176.800 C 171.955 162.901,147.797 139.002,147.261 137.574 C 146.023 134.276,145.566 134.882,165.000 114.107 C 168.300 110.580,172.350 106.195,174.000 104.363 C 178.074 99.839,181.653 95.986,185.000 92.521 C 188.505 88.891,192.573 84.559,196.200 80.592 C 197.740 78.908,200.133 76.414,201.517 75.049 C 202.901 73.684,204.353 72.081,204.744 71.486 C 205.134 70.891,206.301 69.801,207.338 69.064 C 208.375 68.327,209.657 67.137,210.186 66.419 C 210.716 65.701,212.105 64.489,213.274 63.725 C 214.443 62.961,215.804 61.827,216.298 61.207 C 216.793 60.586,218.233 59.500,219.498 58.793 C 220.764 58.087,223.254 56.538,225.030 55.352 C 226.956 54.067,229.622 52.736,231.630 52.056 C 233.484 51.428,236.286 50.266,237.858 49.474 C 245.868 45.434,265.101 43.741,279.800 45.780 M89.317 236.589 C 81.410 240.027,75.773 250.528,79.959 254.022 C 85.537 258.679,95.097 256.387,97.575 249.800 C 100.669 241.572,95.794 233.773,89.317 236.589 M76.658 261.191 C 71.573 262.816,71.396 263.404,71.416 278.600 C 71.437 295.327,71.959 297.984,75.800 300.916 C 80.863 304.781,83.380 304.929,86.047 301.515 C 88.949 297.802,89.140 296.656,87.771 291.200 C 87.281 289.245,87.055 285.672,86.860 276.800 C 86.575 263.847,86.526 263.587,83.984 261.448 C 82.457 260.163,80.132 260.081,76.658 261.191 M81.983 289.188 C 82.335 290.542,82.521 292.793,82.439 294.700 C 82.376 296.153,80.945 295.864,80.454 294.300 C 79.245 290.454,79.671 285.126,81.038 286.988 C 81.356 287.421,81.781 288.411,81.983 289.188 M86.014 307.901 C 81.062 310.398,82.025 317.465,88.111 323.297 C 92.711 327.706,92.512 327.601,96.274 327.594 C 100.115 327.587,101.148 327.107,102.296 324.796 C 106.235 316.867,99.594 307.208,90.200 307.203 C 88.327 307.202,86.941 307.433,86.014 307.901 M94.274 316.070 C 95.732 317.439,95.350 319.200,93.596 319.200 C 92.882 319.200,92.000 317.895,92.000 316.838 C 92.000 314.965,92.808 314.692,94.274 316.070 " stroke="none" fill="#949494" fill-rule="evenodd"></path></g></svg>